<svg width="30" height="25" viewBox="0 0 30 25" fill="none" xmlns="http://www.w3.org/2000/svg">
<path d="M6.08 13.056C6.208 13.056 6.464 13.0347 6.848 12.992C7.232 12.9493 7.57333 12.928 7.872 12.928C9.536 12.928 10.816 13.3973 11.712 14.336C12.6507 15.2747 13.12 16.5973 13.12 18.304C13.12 20.0533 12.5227 21.504 11.328 22.656C10.176 23.808 8.704 24.384 6.912 24.384C4.77867 24.384 3.09333 23.5947 1.856 22.016C0.618667 20.4373 0 18.304 0 15.616C0 12.3733 0.725333 9.49333 2.176 6.976C3.66933 4.45867 5.97333 2.13333 9.088 0L11.392 2.816C9.472 4.01066 7.91467 5.46133 6.72 7.168C5.52533 8.832 4.928 10.3467 4.928 11.712C4.928 12.1387 5.03467 12.48 5.248 12.736C5.46133 12.9493 5.73867 13.056 6.08 13.056ZM22.336 13.056C22.464 13.056 22.72 13.0347 23.104 12.992C23.488 12.9493 23.8293 12.928 24.128 12.928C25.792 12.928 27.072 13.3973 27.968 14.336C28.9067 15.2747 29.376 16.5973 29.376 18.304C29.376 20.0533 28.7787 21.504 27.584 22.656C26.432 23.808 24.96 24.384 23.168 24.384C21.0347 24.384 19.3493 23.5947 18.112 22.016C16.8747 20.4373 16.256 18.304 16.256 15.616C16.256 12.3733 16.9813 9.49333 18.432 6.976C19.9253 4.45867 22.2293 2.13333 25.344 0L27.648 2.816C25.728 4.01066 24.1707 5.46133 22.976 7.168C21.7813 8.832 21.184 10.3467 21.184 11.712C21.184 12.1387 21.2907 12.48 21.504 12.736C21.7173 12.9493 21.9947 13.056 22.336 13.056Z" fill="#FAC54B"/>
</svg>
