<svg width="107" height="30" viewBox="0 0 107 30" fill="none" xmlns="http://www.w3.org/2000/svg">
<path fill-rule="evenodd" clip-rule="evenodd" d="M52.4869 17.4719C52.4869 12.6367 50.1392 9.45981 45.8848 9.45981C43.1092 9.45981 40.8855 11.2777 39.6485 13.5435V0L31.1264 3.19465L33.3434 6.32501V26.3753L31.1264 29.5056H41.8654L39.6485 26.3753V15.2904C39.9455 14.9756 41.1405 13.8361 42.8786 13.8361C45.3727 13.8361 46.1819 16.1462 46.1819 19.0549V26.3709L43.9649 29.5012H54.7017L52.4847 26.3709L52.4869 17.4719ZM103.827 26.3731V0L95.3052 3.19244L97.5199 6.3228V26.3731L95.3052 29.5056H106.042L103.827 26.3731ZM61.9135 18.7709H73.73C73.73 18.7709 73.8098 17.9573 73.8098 17.1769C73.8098 12.5634 70.1185 9.45966 65.6314 9.45966C59.885 9.45966 55.8124 13.6276 55.8124 19.5003C55.8124 25.3731 59.7653 29.9999 65.4584 29.9999C67.3995 30.001 69.2857 29.3554 70.8189 28.165C72.3521 26.9747 73.4451 25.3074 73.925 23.4266C72.8166 24.4796 71.0829 25.26 68.8571 25.26C64.8089 25.2622 62.0953 22.5597 61.9135 18.7709ZM65.7777 10.965C67.4892 10.965 68.4691 13.1997 68.4691 16.2702C68.4731 16.6343 68.4583 16.9984 68.4248 17.3609H61.9357C62.1707 14.051 63.5585 10.9716 65.7777 10.9716V10.965ZM93.7266 18.7709H81.9102C82.092 22.5597 84.8077 25.2622 88.8537 25.26C91.0818 25.26 92.8132 24.4796 93.9217 23.4266C93.4418 25.307 92.3492 26.974 90.8164 28.1644C89.2837 29.3547 87.398 30.0005 85.4573 29.9999C79.7641 29.9999 75.8091 25.3731 75.8091 19.5003C75.8091 13.6276 79.8839 9.45966 85.628 9.45966C90.1152 9.45966 93.8131 12.5634 93.8086 17.1769C93.8086 17.9573 93.7266 18.7709 93.7266 18.7709ZM88.468 16.2702C88.468 13.1997 87.4858 10.965 85.7766 10.965V10.9716C83.5552 10.9716 82.1696 14.051 81.9323 17.3609H88.4236C88.4572 16.9984 88.472 16.6343 88.468 16.2702ZM27.0315 15.9491L24.5862 10.0807H30.807L23.2094 29.5058H19.68L15.5254 19.5295L11.6236 29.5058H8.09415L0 10.0807H7.18963L12.6323 23.1409L14.7606 17.6983L11.5859 10.0807H20.6599L19.7488 12.413L24.2182 23.1409L27.0315 15.9491Z" fill="#2E4F25"/>
</svg>
