<svg width="171" height="48" viewBox="0 0 171 48" fill="none" xmlns="http://www.w3.org/2000/svg">
<path fill-rule="evenodd" clip-rule="evenodd" d="M84.5962 27.9551C84.5962 20.2188 80.8207 15.1357 73.9793 15.1357C69.5158 15.1357 65.94 18.0444 63.9506 21.6695V0L50.2464 5.11145L53.8115 10.12V42.2005L50.2464 47.209H67.5157L63.9506 42.2005V24.4647C64.4284 23.961 66.35 22.1378 69.145 22.1378C73.1557 22.1378 74.457 25.8339 74.457 30.4878V42.1934L70.8919 47.2019H88.1577L84.5926 42.1934L84.5962 27.9551ZM167.157 42.1969V0L153.453 5.1079L157.014 10.1165V42.1969L153.453 47.209H170.718L167.157 42.1969ZM99.7548 30.0337H118.757C118.757 30.0337 118.885 28.7319 118.885 27.4833C118.885 20.1017 112.949 15.1357 105.733 15.1357C96.4927 15.1357 89.9436 21.8043 89.9436 31.2007C89.9436 40.5971 96.3002 48 105.455 48C108.577 48.0018 111.61 46.9689 114.076 45.0643C116.541 43.1597 118.299 40.492 119.071 37.4827C117.288 39.1676 114.5 40.4162 110.921 40.4162C104.411 40.4198 100.047 36.0958 99.7548 30.0337ZM105.969 17.5442C108.721 17.5442 110.297 21.1197 110.297 26.0325C110.303 26.6151 110.279 27.1976 110.226 27.7777H99.7905C100.168 22.4818 102.4 17.5548 105.969 17.5548V17.5442ZM150.914 30.0337H131.912C132.205 36.0958 136.572 40.4198 143.078 40.4162C146.661 40.4162 149.445 39.1676 151.228 37.4827C150.456 40.4914 148.699 43.1586 146.234 45.0632C143.77 46.9677 140.737 48.0011 137.616 48C128.461 48 122.101 40.5971 122.101 31.2007C122.101 21.8043 128.654 15.1357 137.891 15.1357C145.107 15.1357 151.053 20.1017 151.046 27.4833C151.046 28.7319 150.914 30.0337 150.914 30.0337ZM142.458 26.0325C142.458 21.1197 140.878 17.5442 138.13 17.5442V17.5548C134.558 17.5548 132.329 22.4818 131.948 27.7777H142.387C142.44 27.1976 142.464 26.6151 142.458 26.0325ZM43.6615 25.5183L39.7292 16.1289H49.7329L37.5152 47.2091H31.8396L25.1586 31.2469L18.884 47.2091H13.2083L0.192139 16.1289H11.7538L20.5061 37.0252L23.9286 28.317L18.8234 16.1289H33.4154L31.9501 19.8605L39.1374 37.0252L43.6615 25.5183Z" fill="white"/>
</svg>
